<?xml version="1.0" standalone="no"?><svg xmlns="http://www.w3.org/2000/svg" viewBox="0 0 1440 320"><path fill="#273036" fill-opacity="1" d="M0,64L34.3,85.3C68.6,107,137,149,206,154.7C274.3,160,343,128,411,144C480,160,549,224,617,218.7C685.7,213,754,139,823,117.3C891.4,96,960,128,1029,133.3C1097.1,139,1166,117,1234,122.7C1302.9,128,1371,160,1406,176L1440,192L1440,0L1405.7,0C1371.4,0,1303,0,1234,0C1165.7,0,1097,0,1029,0C960,0,891,0,823,0C754.3,0,686,0,617,0C548.6,0,480,0,411,0C342.9,0,274,0,206,0C137.1,0,69,0,34,0L0,0Z"></path></svg>